<svg xmlns="http://www.w3.org/2000/svg" viewBox="1680 3942.72 58.28 35.28"><defs><style>.a{fill:none;stroke:#2b2c30;stroke-width:3px}</style></defs><g class="a"><path d="M1684.3 3942.72h49.68a4.3 4.3 0 0 1 4.3 4.3V3976a2 2 0 0 1-2 2H1682a2 2 0 0 1-2-2v-28.98a4.3 4.3 0 0 1 4.3-4.3z"/><path d="M1684.3 3944.22h49.68a2.8 2.8 0 0 1 2.8 2.8V3976a.5.5 0 0 1-.5.5H1682a.5.5 0 0 1-.5-.5v-28.98a2.8 2.8 0 0 1 2.8-2.8z" fill="none"/></g><path class="a" d="M1681.608 3944.952l27.785 15.933m28.107-15.933l-27.785 16.502"/><path d="M1708.653 3962.181l.725-1.262.185 1.343.015.107" fill="#2b2c30" stroke="#2b2c30"/><path d="M1710.028 3962.019l.438.738-1.1-.738" stroke="#2b2c30" fill="none"/></svg>