<svg xmlns="http://www.w3.org/2000/svg" viewBox="3022.5 4623.5 66 66"><defs><style>.a{fill:#fff}.b{fill:#2c2c2c;fill-rule:evenodd}.c{filter:url(#a)}</style><filter id="a" x="3022.5" y="4623.5" width="66" height="66" filterUnits="userSpaceOnUse"><feOffset dy="6"/><feGaussianBlur stdDeviation="3" result="b"/><feFlood flood-opacity=".161"/><feComposite operator="in" in2="b"/><feComposite in="SourceGraphic"/></filter></defs><g class="c"><circle class="a" cx="24" cy="24" r="24" transform="translate(3031.5 4626.5)"/></g><path class="b" d="M3045.4 4651.091a9.332 9.332 0 0 0 .5 1.122c1.157 2.065 3.388 3.349 7.152 3.705a3.154 3.154 0 0 0-1.271 2.039 4.206 4.206 0 0 1-3.09.244c-1.48-.459-2.046-3.338-4.262-2.927-.479.088-.384.4.03.664a4.3 4.3 0 0 1 1.8 2.11 3.626 3.626 0 0 0 3.674 2.452 11.229 11.229 0 0 0 1.689-.117s.019 2.242.019 3.113c0 1.006-1.381 1.289-1.381 1.772 0 .191.457.209.824.209.726 0 2.235-.6 2.235-1.64 0-.83.014-3.62.014-4.109a1.563 1.563 0 0 1 .582-1.405s.072 5.7-.139 6.462c-.248.9-.7.771-.7 1.171 0 .6 1.817.147 2.42-1.162.465-1.017.262-6.608.262-6.608l.5-.01s.028 2.559.011 3.728c-.017 1.212-.1 2.743.631 3.466.481.475 2.039 1.308 2.039.547 0-.442-.854-.806-.854-2v-5.517c.682 0 .58 1.812.58 1.812l.05 3.368a1.714 1.714 0 0 0 1.35 1.739c.529.183 1.662.232 1.716-.074s-1.364-.762-1.377-1.711c-.008-.58.026-.919.026-3.437s-.344-3.449-1.543-4.191c3.7-.373 5.991-1.273 7.107-3.682a3.745 3.745 0 0 0 .406-1.124 13.4 13.4 0 0 0 .412-3.26 7.323 7.323 0 0 0-2.012-5.255c.476-2.616-.08-3.806-.338-4.215-.954-.333-3.317.858-4.609 1.7-2.1-.6-6.555-.547-8.224.156-3.079-2.166-4.708-1.835-4.708-1.835a6.28 6.28 0 0 0-.278 4.568 6.086 6.086 0 0 0-1.767 4.541 11.014 11.014 0 0 0 .524 3.591zm10.225 24.159a24.625 24.625 0 1 1 24.625-24.625 24.626 24.626 0 0 1-24.625 24.625z"/></svg>