<svg xmlns="http://www.w3.org/2000/svg" viewBox="3418 4852 78 78"><defs><filter id="a" x="3418" y="4852" width="78" height="78" filterUnits="userSpaceOnUse"><feOffset dy="5"/><feGaussianBlur stdDeviation="3" result="b"/><feFlood flood-opacity=".161"/><feComposite operator="in" in2="b"/><feComposite in="SourceGraphic"/></filter></defs><circle cx="21" cy="21" r="21" transform="translate(3436 4865)" fill="#fff"/><path d="M20.543 34.568a11.37 11.37 0 0 0 .61 1.367c1.41 2.516 4.128 4.08 8.713 4.514a3.843 3.843 0 0 0-1.549 2.484 5.125 5.125 0 0 1-3.764.3c-1.8-.559-2.493-4.066-5.192-3.566-.584.107-.468.486.037.809a5.243 5.243 0 0 1 2.194 2.571 4.417 4.417 0 0 0 4.473 2.981 13.679 13.679 0 0 0 2.058-.143s.023 2.731.023 3.793c0 1.225-1.682 1.57-1.682 2.159 0 .233.557.255 1 .255.884 0 2.723-.725 2.723-2 0-1.011.017-4.41.017-5.006a1.9 1.9 0 0 1 .709-1.712s.088 6.94-.169 7.872c-.3 1.094-.847.939-.847 1.427 0 .726 2.214.179 2.948-1.416.567-1.239.319-8.05.319-8.05l.6-.012s.034 3.117.013 4.542c-.021 1.476-.123 3.342.769 4.222.586.579 2.484 1.594 2.484.666 0-.539-1.04-.982-1.04-2.441v-6.716c.831 0 .706 2.208.706 2.208l.061 4.1a2.088 2.088 0 0 0 1.654 2.124c.645.223 2.025.283 2.09-.09s-1.662-.928-1.678-2.084c-.01-.707.032-1.119.032-4.187s-.419-4.2-1.88-5.106c4.508-.455 7.3-1.551 8.658-4.486a4.563 4.563 0 0 0 .5-1.371 16.322 16.322 0 0 0 .5-3.971 8.922 8.922 0 0 0-2.451-6.4c.58-3.187-.1-4.637-.412-5.135-1.162-.406-4.041 1.045-5.615 2.067-2.564-.737-7.986-.666-10.019.19-3.751-2.639-5.736-2.235-5.736-2.235a7.65 7.65 0 0 0-.339 5.565 7.415 7.415 0 0 0-2.156 5.543 13.418 13.418 0 0 0 .638 4.368zM33 64a30 30 0 1 1 30-30 30 30 0 0 1-30 30z" transform="translate(3424 4852)" fill="#2c2c2c" fill-rule="evenodd" filter="url(#a)"/></svg>