<svg xmlns="http://www.w3.org/2000/svg" viewBox="2957.5 4623.5 66 66"><defs><style>.a{fill:#fff}.b{fill:#2c2c2c}.c{filter:url(#a)}</style><filter id="a" x="2957.5" y="4623.5" width="66" height="66" filterUnits="userSpaceOnUse"><feOffset dy="6"/><feGaussianBlur stdDeviation="3" result="b"/><feFlood flood-opacity=".161"/><feComposite operator="in" in2="b"/><feComposite in="SourceGraphic"/></filter></defs><g class="c"><circle class="a" cx="24" cy="24" r="24" transform="translate(2966.5 4626.5)"/></g><path class="b" d="M2990.625 4626a24.625 24.625 0 1 0 24.623 24.625 24.625 24.625 0 0 0-24.623-24.625zm13.715 36.586a2.007 2.007 0 0 1-2.031 1.982h-23.418a2.006 2.006 0 0 1-2.031-1.982v-23.689a2.007 2.007 0 0 1 2.031-1.982h23.417a2.008 2.008 0 0 1 2.031 1.982v23.689z"/><path d="M2995.378 4647.286a4.119 4.119 0 0 0-3.74 2.061v.041h-.027a.223.223 0 0 0 .027-.041v-1.768h-4.15c.055 1.17 0 12.484 0 12.484h4.15v-6.973a2.829 2.829 0 0 1 .137-1.012 2.278 2.278 0 0 1 2.129-1.52c1.5 0 2.1 1.146 2.1 2.824v6.68h4.15v-7.157c.002-3.836-2.047-5.619-4.776-5.619zM2983.142 4641.557a2.164 2.164 0 1 0-.055 4.317h.027a2.165 2.165 0 1 0 .028-4.317zM2981.04 4647.579h4.151v12.484h-4.151z"/></svg>