<svg width="0" height="0" xmlns="http://www.w3.org/2000/svg"><defs><symbol id="telefone" viewBox="3001 4770 48 48"><path d="M3001 4770h48v48h-48z" fill="none"/><path d="M3014.25 4791.59a30.12 30.12 0 0 0 13.18 13.17l4.4-4.41a2.007 2.007 0 0 1 2.03-.49 22.767 22.767 0 0 0 7.14 1.14 1.993 1.993 0 0 1 2 2v7a1.993 1.993 0 0 1-2 2 34 34 0 0 1-34-34 2 2 0 0 1 2-2h7a1.993 1.993 0 0 1 2 2 22.767 22.767 0 0 0 1.14 7.14 2.007 2.007 0 0 1-.49 2.03z" fill="#ea2f4a"/></symbol><symbol id="interface" viewBox="4714 1590 62.456 43.785"><defs><style>.c{fill:#d9534f}.d{fill:#5cb85c}.j{fill:none}.i{stroke:none}</style></defs><g fill="#2b2c30" stroke="#1a1a1d"><path class="i" d="M4717 1590h56.456a3 3 0 0 1 3 3v40.785H4714V1593a3 3 0 0 1 3-3z"/><path class="j" d="M4717 1590.5h56.456a2.5 2.5 0 0 1 2.5 2.5v39.785a.5.5 0 0 1-.5.5H4715a.5.5 0 0 1-.5-.5V1593a2.5 2.5 0 0 1 2.5-2.5z"/></g><g fill="#fff" stroke="#95989a"><path class="i" d="M4719.678 1597.859h51.1v32.558h-51.1z"/><path class="j" d="M4720.178 1598.359h50.1v31.558h-50.1z"/></g><path class="c" d="M4721.949 1600.104h28.389v17.963h-28.389z"/><path class="d" d="M4721.949 1620.313h15.898v6.736h-15.898z"/><path fill="#8f3faf" d="M4738.982 1620.313h11.356v6.736h-11.356z"/><path fill="#5bc0de" d="M4751.474 1620.313h17.033v6.736h-17.033z"/><path d="M4753.177 1602.911h14.762m-14.762 0h14.762m-14.762 3.368h14.762m-14.762 3.368h14.762m-14.762 3.368h14.762" stroke="#f0ad4e" stroke-width="2" fill="none"/><ellipse class="c" cx="1.703" cy="1.684" rx="1.703" ry="1.684" transform="translate(4718.542 1592.245)"/><ellipse cx="1.703" cy="1.684" rx="1.703" ry="1.684" transform="translate(4723.084 1592.245)" fill="#f0ad4e"/><ellipse class="d" cx="1.703" cy="1.684" rx="1.703" ry="1.684" transform="translate(4727.627 1592.245)"/></symbol></defs></svg>