<svg xmlns="http://www.w3.org/2000/svg" viewBox="3502 4781 78 78"><defs><filter id="a" x="3502" y="4781" width="78" height="78" filterUnits="userSpaceOnUse"><feOffset dy="5"/><feGaussianBlur stdDeviation="3" result="b"/><feFlood flood-opacity=".161"/><feComposite operator="in" in2="b"/><feComposite in="SourceGraphic"/></filter></defs><circle cx="30" cy="30" r="30" transform="translate(3511 4785)" fill="#2c2c2c" filter="url(#a)"/><path d="M3561 4803.551a16.627 16.627 0 0 1-4.6 1.192 7.677 7.677 0 0 0 3.518-4.19 16.575 16.575 0 0 1-5.081 1.839 8.207 8.207 0 0 0-5.84-2.392 7.8 7.8 0 0 0-8 7.574 7.2 7.2 0 0 0 .207 1.726 23.167 23.167 0 0 1-16.489-7.914 7.23 7.23 0 0 0-1.083 3.808 7.472 7.472 0 0 0 3.559 6.3 8.324 8.324 0 0 1-3.624-.948v.1a7.7 7.7 0 0 0 6.419 7.428 8.472 8.472 0 0 1-2.108.265 8.361 8.361 0 0 1-1.506-.136 7.968 7.968 0 0 0 7.474 5.26 16.635 16.635 0 0 1-9.937 3.241 17.077 17.077 0 0 1-1.909-.106 23.579 23.579 0 0 0 12.265 3.4c14.718 0 22.765-11.54 22.765-21.549q0-.492-.022-.981a15.755 15.755 0 0 0 3.992-3.917z" fill="#fff"/></svg>