<svg xmlns="http://www.w3.org/2000/svg" viewBox="2892.5 4623.5 66 66"><defs><style>.a{fill:#fff}.b{fill:#2c2c2c}.c{filter:url(#a)}</style><filter id="a" x="2892.5" y="4623.5" width="66" height="66" filterUnits="userSpaceOnUse"><feOffset dy="6"/><feGaussianBlur stdDeviation="3" result="b"/><feFlood flood-opacity=".161"/><feComposite operator="in" in2="b"/><feComposite in="SourceGraphic"/></filter></defs><g class="c"><circle class="a" cx="24" cy="24" r="24" transform="translate(2901.5 4626.5)"/></g><path class="b" d="M2925.625 4626a24.624 24.624 0 1 0 24.623 24.625 24.626 24.626 0 0 0-24.623-24.625zm12.4 19.66c.013.266.018.533.018.8 0 8.2-6.242 17.656-17.656 17.656a17.572 17.572 0 0 1-9.51-2.784 12.691 12.691 0 0 0 1.48.086 12.45 12.45 0 0 0 7.707-2.656 6.214 6.214 0 0 1-5.8-4.311 6.061 6.061 0 0 0 1.167.111 6.167 6.167 0 0 0 1.635-.217 6.21 6.21 0 0 1-4.979-6.084v-.08a6.184 6.184 0 0 0 2.811.777 6.214 6.214 0 0 1-1.921-8.286 17.618 17.618 0 0 0 12.8 6.483 6.209 6.209 0 0 1 10.574-5.66 12.4 12.4 0 0 0 3.941-1.506 6.223 6.223 0 0 1-2.73 3.433 12.407 12.407 0 0 0 3.565-.977 12.537 12.537 0 0 1-3.098 3.215z"/></svg>